{
  "source": "C:\\Users\\Peter\\Desktop\\stuff\\MIUN\\quantitative_research\\video_compression\\videos\\BVI-HD\\RockWave_1920x1080_30fps.mp4",
  "output": "C:\\Users\\Peter\\Desktop\\stuff\\MIUN\\quantitative_research\\video_compression\\compressed_videos\\BVI-HD\\av1\\12\\RockWave_1920x1080_30fps_av1.mkv",
  "codec": "av1",
  "ok": "Input #0, mov,mp4,m4a,3gp,3g2,mj2, from 'C:\\Users\\Peter\\Desktop\\stuff\\MIUN\\quantitative_research\\video_compression\\videos\\BVI-HD\\RockWave_1920x1080_30fps.mp4':\n  Metadata:\n    major_brand     : isom\n    minor_version   : 512\n    compatible_brands: isomiso2avc1mp41\n    encoder         : Lavf54.28.101\n  Duration: 00:00:05.00, start: 0.000000, bitrate: 303557 kb/s\n  Stream #0:0[0x1](und): Video: h264 (High 4:4:4 Predictive) (avc1 / 0x31637661), yuv420p(progressive), 1920x1080, 303553 kb/s, 30 fps, 30 tbr, 30 tbn (default)\n    Metadata:\n      handler_name    : VideoHandler\n      vendor_id       : [0][0][0][0]\n[out#0/matroska @ 00000208cfa99400] Codec AVOption b:a (set bitrate (in bits/s)) has not been used for any stream. The most likely reason is either wrong type (e.g. a video option with no video streams) or that it is a private option of some decoder which was not actually used for any stream.\nStream mapping:\n  Stream #0:0 -> #0:0 (h264 (native) -> av1 (libsvtav1))\nPress [q] to stop, [?] for help\nSvt[info]: -------------------------------------------\nSvt[info]: SVT [version]:\tSVT-AV1 Encoder Lib v3.1.0-19-g6ecfe8ec\nSvt[info]: SVT [build]  :\tGCC 15.2.0\t 64 bit\nSvt[info]: LIB Build date: Aug 17 2025 11:37:13\nSvt[info]: -------------------------------------------\nSvt[info]: Level of Parallelism: 5\nSvt[info]: Number of PPCS 93\nSvt[info]: [asm level on system : up to avx2]\nSvt[info]: [asm level selected : up to avx2]\nSvt[info]: -------------------------------------------\nSvt[info]: SVT [config]: main profile\ttier (auto)\tlevel (auto)\nSvt[info]: SVT [config]: width / height / fps numerator / fps denominator \t\t: 1920 / 1080 / 30 / 1\nSvt[info]: SVT [config]: bit-depth / color format \t\t\t\t\t: 8 / YUV420\nSvt[info]: SVT [config]: preset / tune / pred struct \t\t\t\t\t: 4 / PSNR / random access\nSvt[info]: SVT [config]: gop size / mini-gop size / key-frame type \t\t\t: 161 / 16 / key frame\nSvt[info]: SVT [config]: BRC mode / target bitrate (kbps)\t\t\t\t: VBR / 12000 \nSvt[info]: SVT [config]: AQ mode / Variance Boost \t\t\t\t\t: 2 / 0\nSvt[info]: SVT [config]: sharpness / luminance-based QP bias \t\t\t\t: 0 / 0\nSvt[info]: SVT [config]: QP scale compress strength \t\t\t\t\t: 0\nSvt[info]: -------------------------------------------\nOutput #0, matroska, to 'C:\\Users\\Peter\\Desktop\\stuff\\MIUN\\quantitative_research\\video_compression\\compressed_videos\\BVI-HD\\av1\\12\\RockWave_1920x1080_30fps_av1.mkv':\n  Metadata:\n    major_brand     : isom\n    minor_version   : 512\n    compatible_brands: isomiso2avc1mp41\n    encoder         : Lavf62.3.100\n  Stream #0:0(und): Video: av1 (AV01 / 0x31305641), yuv420p(tv, progressive), 1920x1080, q=2-31, 12000 kb/s, 30 fps, 1k tbn (default)\n    Metadata:\n      encoder         : Lavc62.11.100 libsvtav1\n      handler_name    : VideoHandler\n      vendor_id       : [0][0][0][0]\n    Side data:\n      cpb: bitrate max/min/avg: 0/0/12000000 buffer size: 12000000 vbv_delay: N/A\nframe=    0 fps=0.0 q=0.0 size=       0KiB time=N/A bitrate=N/A speed=N/A elapsed=0:00:02.58    \nframe=    0 fps=0.0 q=0.0 size=       0KiB time=N/A bitrate=N/A speed=N/A elapsed=0:00:03.13    \nframe=    0 fps=0.0 q=0.0 size=       0KiB time=N/A bitrate=N/A speed=N/A elapsed=0:00:03.68    \nframe=    0 fps=0.0 q=0.0 size=       0KiB time=N/A bitrate=N/A speed=N/A elapsed=0:00:04.21    \nframe=    0 fps=0.0 q=0.0 size=       0KiB time=N/A bitrate=N/A speed=N/A elapsed=0:00:04.73    \nframe=    0 fps=0.0 q=0.0 size=       0KiB time=N/A bitrate=N/A speed=N/A elapsed=0:00:05.27    \nframe=    0 fps=0.0 q=0.0 size=       0KiB time=N/A bitrate=N/A speed=N/A elapsed=0:00:05.82    \nframe=    1 fps=0.2 q=28.0 size=       1KiB time=00:00:00.00 bitrate=N/A speed=   0x elapsed=0:00:06.33    \nframe=    1 fps=0.1 q=28.0 size=       1KiB time=00:00:00.00 bitrate=N/A speed=   0x elapsed=0:00:06.86    \nframe=    2 fps=0.3 q=38.0 size=       1KiB time=00:00:00.03 bitrate= 171.1kbits/s speed=0.00449x elapsed=0:00:07.42    \nframe=    6 fps=0.8 q=39.0 size=       1KiB time=00:00:00.16 bitrate=  34.2kbits/s speed=0.0209x elapsed=0:00:07.96    \nframe=    8 fps=0.9 q=39.0 size=       1KiB time=00:00:00.23 bitrate=  24.4kbits/s speed=0.0275x elapsed=0:00:08.47    \nframe=   10 fps=1.1 q=39.0 size=       1KiB time=00:00:00.30 bitrate=  19.0kbits/s speed=0.0333x elapsed=0:00:08.99    \nframe=   12 fps=1.3 q=40.0 size=       1KiB time=00:00:00.36 bitrate=  15.6kbits/s speed=0.0384x elapsed=0:00:09.54    \nframe=   18 fps=1.8 q=40.0 size=       1KiB time=00:00:00.56 bitrate=  10.1kbits/s speed=0.0563x elapsed=0:00:10.06    \nframe=   21 fps=2.0 q=38.0 size=       1KiB time=00:00:00.66 bitrate=   8.6kbits/s speed=0.0631x elapsed=0:00:10.57    \nframe=   23 fps=2.1 q=39.0 size=       1KiB time=00:00:00.73 bitrate=   7.8kbits/s speed=0.066x elapsed=0:00:11.10    \nframe=   27 fps=2.3 q=38.0 size=       1KiB time=00:00:00.86 bitrate=   6.6kbits/s speed=0.0745x elapsed=0:00:11.63    \nframe=   33 fps=2.7 q=30.0 size=       1KiB time=00:00:01.06 bitrate=   5.3kbits/s speed=0.0878x elapsed=0:00:12.14    \nframe=   37 fps=2.9 q=40.0 size=       1KiB time=00:00:01.20 bitrate=   4.8kbits/s speed=0.0947x elapsed=0:00:12.67    \nframe=   39 fps=3.0 q=42.0 size=       1KiB time=00:00:01.26 bitrate=   4.5kbits/s speed=0.0961x elapsed=0:00:13.18    \nframe=   43 fps=3.1 q=41.0 size=       1KiB time=00:00:01.40 bitrate=   4.1kbits/s speed=0.102x elapsed=0:00:13.69    \nframe=   48 fps=3.4 q=44.0 size=       1KiB time=00:00:01.56 bitrate=   3.6kbits/s speed=0.11x elapsed=0:00:14.22    \nframe=   52 fps=3.5 q=44.0 size=       1KiB time=00:00:01.70 bitrate=   3.4kbits/s speed=0.115x elapsed=0:00:14.74    \nframe=   57 fps=3.7 q=39.0 size=       1KiB time=00:00:01.86 bitrate=   3.1kbits/s speed=0.122x elapsed=0:00:15.26    \nframe=   59 fps=3.7 q=42.0 size=       1KiB time=00:00:01.93 bitrate=   3.0kbits/s speed=0.123x elapsed=0:00:15.76    \nframe=   63 fps=3.9 q=43.0 size=       1KiB time=00:00:02.06 bitrate=   2.8kbits/s speed=0.127x elapsed=0:00:16.28    \nframe=   67 fps=4.0 q=43.0 size=       1KiB time=00:00:02.20 bitrate=   2.6kbits/s speed=0.131x elapsed=0:00:16.82    \nframe=   73 fps=4.2 q=40.0 size=       1KiB time=00:00:02.40 bitrate=   2.4kbits/s speed=0.138x elapsed=0:00:17.34    \nframe=   73 fps=4.1 q=40.0 size=       1KiB time=00:00:02.40 bitrate=   2.4kbits/s speed=0.134x elapsed=0:00:17.87    \nframe=   79 fps=4.3 q=43.0 size=    5120KiB time=00:00:02.60 bitrate=16131.9kbits/s speed=0.141x elapsed=0:00:18.38    \nframe=   85 fps=4.5 q=43.0 size=    5120KiB time=00:00:02.80 bitrate=14979.7kbits/s speed=0.148x elapsed=0:00:18.91    \nframe=   89 fps=4.6 q=41.0 size=    5120KiB time=00:00:02.93 bitrate=14298.8kbits/s speed=0.151x elapsed=0:00:19.43    \nframe=   91 fps=4.6 q=43.0 size=    5120KiB time=00:00:03.00 bitrate=13981.0kbits/s speed=0.15x elapsed=0:00:19.94    \nframe=   97 fps=4.7 q=36.0 size=    5120KiB time=00:00:03.20 bitrate=13107.2kbits/s speed=0.156x elapsed=0:00:20.46    \nframe=  101 fps=4.8 q=43.0 size=    5120KiB time=00:00:03.33 bitrate=12582.9kbits/s speed=0.159x elapsed=0:00:20.97    \nframe=  105 fps=4.9 q=41.0 size=    5120KiB time=00:00:03.46 bitrate=12099.0kbits/s speed=0.161x elapsed=0:00:21.49    \nframe=  109 fps=5.0 q=41.0 size=    5120KiB time=00:00:03.60 bitrate=11650.8kbits/s speed=0.164x elapsed=0:00:22.01    \nframe=  113 fps=5.0 q=37.0 size=    5120KiB time=00:00:03.73 bitrate=11234.7kbits/s speed=0.166x elapsed=0:00:22.51    \nframe=  119 fps=5.2 q=43.0 size=    5120KiB time=00:00:03.93 bitrate=10663.5kbits/s speed=0.171x elapsed=0:00:23.04    \nframe=  121 fps=5.1 q=41.0 size=    5120KiB time=00:00:04.00 bitrate=10485.8kbits/s speed=0.17x elapsed=0:00:23.56    \nframe=  125 fps=5.2 q=43.0 size=    5120KiB time=00:00:04.13 bitrate=10147.5kbits/s speed=0.172x elapsed=0:00:24.07    \nframe=  133 fps=5.4 q=45.0 size=    5120KiB time=00:00:04.40 bitrate=9532.5kbits/s speed=0.179x elapsed=0:00:24.58    \nframe=  137 fps=5.5 q=43.0 size=    5120KiB time=00:00:04.53 bitrate=9252.1kbits/s speed=0.181x elapsed=0:00:25.09    \nframe=  141 fps=5.5 q=45.0 size=    5120KiB time=00:00:04.66 bitrate=8987.8kbits/s speed=0.182x elapsed=0:00:25.61    \n[out#0/matroska @ 00000208cfa99400] video:8564KiB audio:0KiB subtitle:0KiB other streams:0KiB global headers:0KiB muxing overhead: 0.017424%\nframe=  150 fps=5.8 q=45.0 Lsize=    8565KiB time=00:00:04.96 bitrate=14127.8kbits/s speed=0.191x elapsed=0:00:25.96    \n",
  "seconds": 26.533485412597656,
  "probe_out": {}
}